<?xml version="1.0" encoding="utf-8"?>
<!-- Generator: Adobe Illustrator 19.0.0, SVG Export Plug-In . SVG Version: 6.00 Build 0)  -->
<svg version="1.1" xmlns="http://www.w3.org/2000/svg" xmlns:xlink="http://www.w3.org/1999/xlink" x="0px" y="0px"
	 viewBox="0 0 255.1 119.5" style="enable-background:new 0 0 255.1 119.5;" xml:space="preserve">
<style type="text/css">
	.st0{fill:url(#SVGID_1_);}
	.st1{fill:url(#SVGID_2_);}
	.st2{fill:url(#SVGID_3_);}
	.st3{fill:url(#SVGID_4_);}
	.st4{fill:url(#SVGID_5_);}
	.st5{fill:url(#SVGID_6_);}
	.st6{fill:url(#SVGID_7_);}
	.st7{fill:url(#SVGID_8_);}
	.st8{fill:url(#SVGID_9_);}
	.st9{fill:url(#SVGID_10_);}
	.st10{fill:url(#SVGID_11_);}
	.st11{fill:url(#SVGID_12_);}
	.st12{fill:url(#SVGID_13_);}
	.st13{fill:url(#SVGID_14_);}
	.st14{fill:url(#SVGID_15_);}
	.st15{fill:url(#SVGID_16_);}
	.st16{fill:url(#SVGID_17_);}
	.st17{fill:url(#SVGID_18_);}
	.st18{fill:url(#SVGID_19_);}
	.st19{fill:url(#SVGID_20_);}
</style>
<g id="Layer_2">
</g>
<g id="Layer_1">
	<g>
		<g>
			<g>
				<path d="M0,115.7v-16h2.6v16H0z"/>
				<path d="M6,115.7v-16h7.7c1.2,0,2.2,0.1,2.8,0.3c0.6,0.2,1.2,0.5,1.6,0.9c0.8,0.8,1.1,1.7,1.1,2.9c0,1.7-0.8,2.9-2.5,3.7
					c0.8,0.3,1.3,0.6,1.7,1c0.7,0.7,1,1.6,1,2.7c0,1.6-0.6,2.8-1.7,3.6c-0.9,0.6-2.4,0.9-4.7,0.9H6z M8.6,106.5h5.1
					c0.9,0,1.6-0.2,2-0.5c0.6-0.4,0.8-1.1,0.8-1.9c0-0.8-0.2-1.4-0.7-1.8c-0.2-0.2-0.5-0.4-0.8-0.5s-0.8-0.1-1.4-0.1H8.6V106.5z
					 M8.6,113.7h4.9c2.2,0,3.3-0.9,3.3-2.7c0-0.9-0.2-1.5-0.7-1.9c-0.5-0.4-1.2-0.6-2.3-0.6H8.6V113.7z"/>
				<path d="M25.8,99.7l5.3,13l4.9-13h3.8v16h-2.5v-13.6l-5,13.6h-2.5l-5.2-13.6v13.6h-2.5v-16H25.8z"/>
				<path d="M61.1,113.7v2h-5c-1.4,0-2.6-0.1-3.4-0.4c-1.7-0.5-2.9-1.6-3.7-3.3c-0.6-1.2-0.9-2.7-0.9-4.2c0-1.9,0.4-3.5,1.2-4.9
					c0.6-1.2,1.4-2,2.4-2.5c1-0.5,2.4-0.7,4.2-0.7h5.1v2h-5c-1.1,0-1.9,0.1-2.5,0.3c-0.6,0.2-1,0.5-1.4,0.9c-0.4,0.5-0.8,1.2-1,2.1
					c-0.2,0.9-0.4,1.8-0.4,2.9c0,2,0.5,3.5,1.4,4.5c0.4,0.5,0.9,0.8,1.5,1c0.6,0.2,1.4,0.3,2.5,0.3H61.1z"/>
				<path d="M71.5,108.6c0-1.2-0.2-1.9-0.5-2.3s-1-0.5-2.2-0.5h-5.5v-1.8h6c1,0,1.8,0.1,2.4,0.2c0.6,0.2,1,0.4,1.3,0.8
					c0.3,0.3,0.5,0.7,0.6,1.2c0.1,0.5,0.2,1.1,0.2,2v7.4h-5.9c-1.1,0-1.9,0-2.2-0.1c-0.9-0.2-1.6-0.6-2-1.1
					c-0.5-0.6-0.7-1.3-0.7-2.3c0-0.7,0.1-1.3,0.4-1.8c0.3-0.5,0.6-1,1.1-1.2c0.6-0.4,1.5-0.5,3-0.5H71.5z M71.5,110.5h-3.9
					c-0.7,0-1.2,0.1-1.5,0.2c-0.5,0.2-0.8,0.7-0.8,1.5c0,0.6,0.2,1.1,0.5,1.3c0.3,0.3,0.9,0.4,1.8,0.4h3.9V110.5z"/>
				<path d="M77,104.1h4.8c1.2,0,2.1,0.1,2.7,0.3c0.6,0.2,1.1,0.6,1.7,1.1c0.9,1,1.4,2.5,1.4,4.4c0,1-0.2,1.9-0.5,2.8
					c-0.3,0.9-0.7,1.5-1.3,2c-0.5,0.4-1,0.7-1.5,0.8c-0.6,0.1-1.5,0.2-2.7,0.2h-2.2v3.7H77V104.1z M79.3,105.9v8h2.2
					c1.3,0,2.2-0.3,2.7-0.8c0.6-0.6,0.9-1.8,0.9-3.4c0-1.4-0.3-2.4-0.8-3c-0.6-0.6-1.5-0.9-2.8-0.9H79.3z"/>
				<path d="M90,102.2v-2.4h2.3v2.4H90z M90,104.1h2.3v11.7H90V104.1z"/>
				<path d="M96.7,104.1v-4.3H99v4.3h3.4v1.8H99v6.1c0,0.5,0,0.9,0.1,1.1c0,0.2,0.1,0.4,0.3,0.5c0.2,0.2,0.8,0.3,1.7,0.3h1.4v1.8
					h-2.3c-0.8,0-1.3,0-1.7-0.1c-0.4-0.1-0.7-0.3-1-0.6c-0.3-0.3-0.5-0.6-0.6-1c-0.1-0.4-0.2-1-0.2-1.8v-6.3h-2.2v-1.8H96.7z"/>
				<path d="M112.5,108.6c0-1.2-0.2-1.9-0.5-2.3c-0.3-0.3-1-0.5-2.2-0.5h-5.5v-1.8h6c1,0,1.8,0.1,2.4,0.2c0.6,0.2,1,0.4,1.3,0.8
					c0.3,0.3,0.5,0.7,0.6,1.2c0.1,0.5,0.2,1.1,0.2,2v7.4h-5.9c-1.1,0-1.9,0-2.2-0.1c-0.9-0.2-1.6-0.6-2-1.1
					c-0.5-0.6-0.7-1.3-0.7-2.3c0-0.7,0.1-1.3,0.4-1.8c0.3-0.5,0.6-1,1.1-1.2c0.6-0.4,1.5-0.5,3-0.5H112.5z M112.5,110.5h-3.9
					c-0.7,0-1.2,0.1-1.5,0.2c-0.5,0.2-0.8,0.7-0.8,1.5c0,0.6,0.2,1.1,0.5,1.3c0.3,0.3,0.9,0.4,1.8,0.4h3.9V110.5z"/>
				<path d="M120.3,115.7h-2.3v-16h2.3V115.7z"/>
				<path d="M141.6,113.7v2h-5c-1.4,0-2.6-0.1-3.4-0.4c-1.7-0.5-2.9-1.6-3.7-3.3c-0.6-1.2-0.9-2.7-0.9-4.2c0-1.9,0.4-3.5,1.2-4.9
					c0.6-1.2,1.4-2,2.4-2.5c1-0.5,2.4-0.7,4.2-0.7h5.1v2h-5c-1.1,0-1.9,0.1-2.5,0.3c-0.6,0.2-1,0.5-1.4,0.9c-0.4,0.5-0.8,1.2-1,2.1
					c-0.2,0.9-0.4,1.8-0.4,2.9c0,2,0.5,3.5,1.4,4.5c0.4,0.5,0.9,0.8,1.5,1c0.6,0.2,1.4,0.3,2.5,0.3H141.6z"/>
				<path d="M149.4,103.9c1.9,0,3.3,0.5,4.4,1.6c1,1,1.5,2.5,1.5,4.4c0,1.8-0.5,3.2-1.5,4.3c-1.1,1.1-2.5,1.7-4.5,1.7
					c-2,0-3.6-0.6-4.6-1.7c-0.9-1-1.3-2.3-1.3-4.1c0-1.9,0.5-3.4,1.5-4.5C145.8,104.5,147.3,103.9,149.4,103.9z M149.3,105.8
					c-1.1,0-2,0.4-2.6,1.1c-0.6,0.7-0.9,1.7-0.9,3c0,1.3,0.3,2.2,0.8,2.8c0.6,0.8,1.6,1.2,2.8,1.2c2.4,0,3.6-1.3,3.6-3.9
					c0-1.3-0.3-2.4-0.9-3.1C151.3,106.2,150.4,105.9,149.3,105.8z"/>
				<path d="M157.7,104.1h3c1,0,1.7,0.1,2.2,0.2c0.5,0.1,1,0.4,1.3,0.7c0.4,0.3,0.6,0.7,0.7,1.2c0.1,0.5,0.2,1.2,0.2,2.1v1.1h-2.2
					v-1.1c0-0.9-0.1-1.4-0.4-1.7c-0.3-0.3-0.8-0.5-1.7-0.5h-0.9v9.7h-2.3V104.1z"/>
				<path d="M167.2,104.1h4.8c1.2,0,2.1,0.1,2.7,0.3c0.6,0.2,1.1,0.6,1.7,1.1c0.9,1,1.4,2.5,1.4,4.4c0,1-0.2,1.9-0.5,2.8
					c-0.3,0.9-0.7,1.5-1.3,2c-0.5,0.4-1,0.7-1.5,0.8c-0.6,0.1-1.5,0.2-2.7,0.2h-2.2v3.7h-2.3V104.1z M169.5,105.9v8h2.2
					c1.3,0,2.2-0.3,2.7-0.8c0.6-0.6,0.9-1.8,0.9-3.4c0-1.4-0.3-2.4-0.8-3c-0.6-0.6-1.5-0.9-2.8-0.9H169.5z"/>
				<path d="M185.5,103.9c1.9,0,3.3,0.5,4.4,1.6c1,1,1.5,2.5,1.5,4.4c0,1.8-0.5,3.2-1.5,4.3c-1.1,1.1-2.5,1.7-4.5,1.7
					c-2,0-3.6-0.6-4.6-1.7c-0.9-1-1.3-2.3-1.3-4.1c0-1.9,0.5-3.4,1.5-4.5C181.9,104.5,183.5,103.9,185.5,103.9z M185.4,105.8
					c-1.1,0-2,0.4-2.6,1.1c-0.6,0.7-0.9,1.7-0.9,3c0,1.3,0.3,2.2,0.8,2.8c0.6,0.8,1.6,1.2,2.8,1.2c2.4,0,3.6-1.3,3.6-3.9
					c0-1.3-0.3-2.4-0.9-3.1C187.4,106.2,186.5,105.9,185.4,105.8z"/>
				<path d="M193.9,104.1h3c1,0,1.7,0.1,2.2,0.2c0.5,0.1,1,0.4,1.3,0.7c0.4,0.3,0.6,0.7,0.7,1.2c0.1,0.5,0.2,1.2,0.2,2.1v1.1h-2.2
					v-1.1c0-0.9-0.1-1.4-0.4-1.7c-0.3-0.3-0.8-0.5-1.7-0.5h-0.9v9.7h-2.3V104.1z"/>
				<path d="M211.2,108.6c0-1.2-0.2-1.9-0.5-2.3c-0.3-0.3-1-0.5-2.2-0.5H203v-1.8h6c1,0,1.8,0.1,2.4,0.2c0.6,0.2,1,0.4,1.3,0.8
					c0.3,0.3,0.5,0.7,0.6,1.2c0.1,0.5,0.2,1.1,0.2,2v7.4h-5.9c-1.1,0-1.9,0-2.2-0.1c-0.9-0.2-1.6-0.6-2-1.1
					c-0.5-0.6-0.7-1.3-0.7-2.3c0-0.7,0.1-1.3,0.4-1.8c0.3-0.5,0.6-1,1.1-1.2c0.6-0.4,1.5-0.5,3-0.5H211.2z M211.2,110.5h-3.9
					c-0.7,0-1.2,0.1-1.5,0.2c-0.5,0.2-0.8,0.7-0.8,1.5c0,0.6,0.2,1.1,0.5,1.3c0.3,0.3,0.9,0.4,1.8,0.4h3.9V110.5z"/>
				<path d="M217.6,104.1v-4.3h2.3v4.3h3.4v1.8h-3.4v6.1c0,0.5,0,0.9,0.1,1.1c0,0.2,0.1,0.4,0.3,0.5c0.2,0.2,0.8,0.3,1.7,0.3h1.4
					v1.8h-2.3c-0.8,0-1.3,0-1.7-0.1c-0.4-0.1-0.7-0.3-1-0.6c-0.3-0.3-0.5-0.6-0.6-1c-0.1-0.4-0.2-1-0.2-1.8v-6.3h-2.2v-1.8H217.6z"
					/>
				<path d="M225.7,102.2v-2.4h2.3v2.4H225.7z M225.7,104.1h2.3v11.7h-2.3V104.1z"/>
				<path d="M236.6,103.9c1.9,0,3.3,0.5,4.4,1.6c1,1,1.5,2.5,1.5,4.4c0,1.8-0.5,3.2-1.5,4.3c-1.1,1.1-2.5,1.7-4.5,1.7
					c-2,0-3.6-0.6-4.6-1.7c-0.9-1-1.3-2.3-1.3-4.1c0-1.9,0.5-3.4,1.5-4.5C233,104.5,234.5,103.9,236.6,103.9z M236.5,105.8
					c-1.1,0-2,0.4-2.6,1.1c-0.6,0.7-0.9,1.7-0.9,3c0,1.3,0.3,2.2,0.8,2.8c0.6,0.8,1.6,1.2,2.8,1.2c2.4,0,3.6-1.3,3.6-3.9
					c0-1.3-0.3-2.4-0.9-3.1C238.5,106.2,237.6,105.9,236.5,105.8z"/>
				<path d="M244.9,104.1h5.4c1,0,1.8,0.1,2.5,0.3c0.6,0.2,1.1,0.6,1.5,1.1c0.5,0.7,0.8,1.8,0.8,3.3v7h-2.3V109c0-1.2-0.2-2-0.6-2.4
					c-0.4-0.5-1.1-0.7-2.2-0.7h-2.7v9.8h-2.3V104.1z"/>
			</g>
		</g>
		<g>
			<linearGradient id="SVGID_1_" gradientUnits="userSpaceOnUse" x1="138.7406" y1="85.6063" x2="138.7406" y2="0.5669">
				<stop  offset="0" style="stop-color:#5D6164"/>
				<stop  offset="0.5" style="stop-color:#B0B9BF"/>
			</linearGradient>
			<path class="st0" d="M131.7,14.7v70.9h14.2v-85C138,0.6,131.7,6.9,131.7,14.7z"/>
			<linearGradient id="SVGID_2_" gradientUnits="userSpaceOnUse" x1="74.961" y1="85.6063" x2="74.961" y2="0.5669">
				<stop  offset="0" style="stop-color:#5D6164"/>
				<stop  offset="0.5" style="stop-color:#B0B9BF"/>
			</linearGradient>
			<path class="st1" d="M67.9,14.7v70.9H82v-85C74.3,0.6,67.9,6.9,67.9,14.7z"/>
			<linearGradient id="SVGID_3_" gradientUnits="userSpaceOnUse" x1="117.4807" y1="43.0865" x2="117.4807" y2="0.5669">
				<stop  offset="0" style="stop-color:#002666"/>
				<stop  offset="0.5" style="stop-color:#00479D"/>
			</linearGradient>
			<path class="st2" d="M110.4,0.6c7.8,0,14.2,6.4,14.2,14.2v14.2c0,7.8-6.4,14.2-14.2,14.2l0,0V0.6L110.4,0.6z"/>
			<linearGradient id="SVGID_4_" gradientUnits="userSpaceOnUse" x1="117.4807" y1="85.6063" x2="117.4807" y2="43.0866">
				<stop  offset="0" style="stop-color:#002666"/>
				<stop  offset="0.5" style="stop-color:#00479D"/>
			</linearGradient>
			<path class="st3" d="M110.4,43.1c7.8,0,14.2,6.4,14.2,14.2v14.2c0,7.8-6.4,14.2-14.2,14.2l0,0V43.1L110.4,43.1z"/>
			<linearGradient id="SVGID_5_" gradientUnits="userSpaceOnUse" x1="181.2602" y1="85.6063" x2="181.2602" y2="0.5669">
				<stop  offset="0" style="stop-color:#5D6164"/>
				<stop  offset="0.5" style="stop-color:#B0B9BF"/>
			</linearGradient>
			<path class="st4" d="M174.2,0.6v85h14.2V14.7C188.3,6.9,182,0.6,174.2,0.6z"/>
			<linearGradient id="SVGID_6_" gradientUnits="userSpaceOnUse" x1="96.2209" y1="85.6063" x2="96.2209" y2="0.5669">
				<stop  offset="0" style="stop-color:#002666"/>
				<stop  offset="0.5" style="stop-color:#00479D"/>
			</linearGradient>
			<rect x="89.1" y="0.6" class="st5" width="14.2" height="85"/>
			<linearGradient id="SVGID_7_" gradientUnits="userSpaceOnUse" x1="160.0004" y1="85.6063" x2="160.0004" y2="0.5669">
				<stop  offset="0" style="stop-color:#5D6164"/>
				<stop  offset="0.5" style="stop-color:#B0B9BF"/>
			</linearGradient>
			<rect x="152.9" y="0.6" class="st6" width="14.2" height="85"/>
			<g>
				<linearGradient id="SVGID_8_" gradientUnits="userSpaceOnUse" x1="114.967" y1="85.6063" x2="114.967" y2="2.310117e-010">
					<stop  offset="0" style="stop-color:#000000"/>
					<stop  offset="0.5" style="stop-color:#002666"/>
				</linearGradient>
				<path class="st7" d="M120.1,4.5c-2.6-2.7-6.2-4.5-10.3-4.5h0l0,85l0.6,0.6v-85l0,0C114.1,0.6,117.6,2.1,120.1,4.5z"/>
				<linearGradient id="SVGID_9_" gradientUnits="userSpaceOnUse" x1="115.2504" y1="46.9796" x2="115.2504" y2="42.8562">
					<stop  offset="0" style="stop-color:#000000"/>
					<stop  offset="0.5" style="stop-color:#002666"/>
				</linearGradient>
				<path class="st8" d="M110.4,43.1c3.8,0,7.2,1.5,9.7,3.9c-1.9-2-4.4-3.5-7.2-4.1C112.1,43,111.2,43.1,110.4,43.1z"/>
			</g>
			<linearGradient id="SVGID_10_" gradientUnits="userSpaceOnUse" x1="173.6067" y1="42.8032" x2="183.8865" y2="42.8032">
				<stop  offset="0" style="stop-color:#000000"/>
				<stop  offset="0.5" style="stop-color:#5D6970"/>
			</linearGradient>
			<path class="st9" d="M183.9,4.5c-2.6-2.7-6.2-4.5-10.3-4.5v85l0.6,0.6v-85C177.9,0.6,181.3,2.1,183.9,4.5z"/>
			<linearGradient id="SVGID_11_" gradientUnits="userSpaceOnUse" x1="95.9374" y1="85.6063" x2="95.9374" y2="-3.055902e-010">
				<stop  offset="0" style="stop-color:#000000"/>
				<stop  offset="0.5" style="stop-color:#002666"/>
			</linearGradient>
			<polygon class="st10" points="103.3,0.6 102.7,0 88.6,0 88.6,85 89.1,85.6 89.1,0.6 			"/>
			<linearGradient id="SVGID_12_" gradientUnits="userSpaceOnUse" x1="152.3468" y1="42.8032" x2="167.087" y2="42.8032">
				<stop  offset="0" style="stop-color:#000000"/>
				<stop  offset="0.5" style="stop-color:#5D6970"/>
			</linearGradient>
			<polygon class="st11" points="167.1,0.6 166.5,0 152.3,0 152.3,85 152.9,85.6 152.9,0.6 			"/>
			<linearGradient id="SVGID_13_" gradientUnits="userSpaceOnUse" x1="131.087" y1="42.8032" x2="145.8272" y2="42.8032">
				<stop  offset="0" style="stop-color:#000000"/>
				<stop  offset="0.5" style="stop-color:#5D6970"/>
			</linearGradient>
			<path class="st12" d="M131.7,14.7c0-7.8,6.4-14.2,14.2-14.2L145.3,0c-7.8,0-14.2,6.4-14.2,14.2V85l0.6,0.6V14.7z"/>
			<linearGradient id="SVGID_14_" gradientUnits="userSpaceOnUse" x1="67.3075" y1="42.8032" x2="82.0476" y2="42.8032">
				<stop  offset="0" style="stop-color:#000000"/>
				<stop  offset="0.5" style="stop-color:#5D6970"/>
			</linearGradient>
			<path class="st13" d="M67.9,14.7c0-7.8,6.4-14.2,14.2-14.2L81.5,0c-7.8,0-14.2,6.4-14.2,14.2V85l0.6,0.6V14.7z"/>
			<linearGradient id="SVGID_15_" gradientUnits="userSpaceOnUse" x1="144.0555" y1="85.6063" x2="144.0555" y2="96.2362">
				<stop  offset="0" style="stop-color:#A6A6A6;stop-opacity:0.45"/>
				<stop  offset="0.75" style="stop-color:#A6A6A6;stop-opacity:0"/>
			</linearGradient>
			<polygon class="st14" points="131.7,85.6 142.3,96.2 156.5,96.2 145.8,85.6 			"/>
			<linearGradient id="SVGID_16_" gradientUnits="userSpaceOnUse" x1="80.276" y1="85.6063" x2="80.276" y2="96.2362">
				<stop  offset="0" style="stop-color:#A6A6A6;stop-opacity:0.45"/>
				<stop  offset="0.75" style="stop-color:#A6A6A6;stop-opacity:0"/>
			</linearGradient>
			<polygon class="st15" points="67.9,85.6 78.5,96.2 92.7,96.2 82,85.6 			"/>
			<linearGradient id="SVGID_17_" gradientUnits="userSpaceOnUse" x1="122.7957" y1="85.6063" x2="122.7957" y2="96.2362">
				<stop  offset="0" style="stop-color:#00479D;stop-opacity:0.3"/>
				<stop  offset="0.75" style="stop-color:#00479D;stop-opacity:0"/>
			</linearGradient>
			<path class="st16" d="M110.4,85.6L110.4,85.6L121,96.2h14.2l-3.5-3.5C127.8,88.8,118.2,85.6,110.4,85.6z"/>
			<linearGradient id="SVGID_18_" gradientUnits="userSpaceOnUse" x1="186.5752" y1="85.6063" x2="186.5752" y2="96.2362">
				<stop  offset="0" style="stop-color:#A6A6A6;stop-opacity:0.45"/>
				<stop  offset="0.75" style="stop-color:#A6A6A6;stop-opacity:0"/>
			</linearGradient>
			<polygon class="st17" points="188.3,85.6 174.2,85.6 184.8,96.2 199,96.2 			"/>
			<linearGradient id="SVGID_19_" gradientUnits="userSpaceOnUse" x1="101.5359" y1="85.6063" x2="101.5359" y2="96.2362">
				<stop  offset="0" style="stop-color:#00479D;stop-opacity:0.3"/>
				<stop  offset="0.75" style="stop-color:#00479D;stop-opacity:0"/>
			</linearGradient>
			<polygon class="st18" points="89.1,85.6 99.8,96.2 113.9,96.2 103.3,85.6 			"/>
			<linearGradient id="SVGID_20_" gradientUnits="userSpaceOnUse" x1="165.3154" y1="85.6063" x2="165.3154" y2="96.2362">
				<stop  offset="0" style="stop-color:#A6A6A6;stop-opacity:0.45"/>
				<stop  offset="0.75" style="stop-color:#A6A6A6;stop-opacity:0"/>
			</linearGradient>
			<polygon class="st19" points="152.9,85.6 163.5,96.2 177.7,96.2 167.1,85.6 			"/>
		</g>
	</g>
</g>
</svg>
